<?xml version="1.0" encoding="UTF-8"?>
<svg id="Layer_2" data-name="Layer 2" xmlns="http://www.w3.org/2000/svg" viewBox="0 0 588.93 329.92">
  <defs>
    <style>
      .cls-1 {
        fill: #fff;
        stroke-width: 0px;
      }
    </style>
  </defs>
  <g id="Layer_1-2" data-name="Layer 1">
    <g>
      <path class="cls-1" d="M463.88.01H162.22s-4.68-.03-6.76,0c0,0,0,0,0,0-5.95,2.61-10.12,8.54-10.12,15.46v124.73c0,6.91,4.16,12.85,10.12,15.45l.87.14h190.08c5.59,0,9.25-3.26,9.25-8.85h0c0-5.59-4.53-10.12-10.12-10.12h-179.96v-26.14h219.41c5.59,0,10.12-4.53,10.12-10.12s-4.53-10.12-10.12-10.12h-219.41v-25.69h258.85c5.59,0,10.12-4.53,10.12-10.12s-4.53-10.12-10.12-10.12H165.59v-25.69h298.3c5.59,0,10.12-4.53,10.12-10.12S469.47.01,463.88.01Z"/>
      <ellipse class="cls-1" cx="195.32" cy="184.93" rx="17.51" ry="13.87" transform="translate(-69.13 234.03) rotate(-53.95)"/>
      <ellipse class="cls-1" cx="311.54" cy="184.93" rx="17.51" ry="13.87" transform="translate(-21.31 327.99) rotate(-53.95)"/>
      <path class="cls-1" d="M0,328.9v-72h28.83c5.3,0,9.71.79,13.25,2.36,3.54,1.57,6.2,3.74,7.98,6.52,1.78,2.78,2.67,5.97,2.67,9.58,0,2.81-.56,5.28-1.69,7.4s-2.67,3.86-4.62,5.2c-1.96,1.35-4.19,2.3-6.7,2.87v.7c2.74.12,5.31.89,7.72,2.32,2.4,1.43,4.35,3.43,5.85,5.99,1.5,2.57,2.25,5.62,2.25,9.16,0,3.82-.94,7.22-2.83,10.21-1.89,2.99-4.67,5.35-8.35,7.08-3.68,1.73-8.21,2.6-13.61,2.6H0ZM15.22,287.03h11.29c2.09,0,3.94-.37,5.57-1.11,1.63-.74,2.92-1.79,3.87-3.15s1.42-2.99,1.42-4.89c0-2.6-.92-4.7-2.76-6.29-1.84-1.59-4.45-2.39-7.82-2.39h-11.57v17.82ZM15.22,316.45h12.41c4.24,0,7.34-.81,9.28-2.44,1.95-1.63,2.92-3.8,2.92-6.52,0-1.99-.48-3.75-1.44-5.27-.96-1.52-2.33-2.72-4.1-3.59-1.77-.87-3.87-1.3-6.31-1.3h-12.76v19.12ZM131.59,292.9c0,7.85-1.48,14.53-4.45,20.04-2.97,5.51-7,9.71-12.09,12.6s-10.82,4.34-17.17,4.34-12.14-1.45-17.23-4.36c-5.09-2.91-9.11-7.11-12.06-12.62s-4.43-12.18-4.43-20,1.48-14.53,4.43-20.04,6.97-9.71,12.06-12.6c5.09-2.89,10.83-4.34,17.23-4.34s12.08,1.45,17.17,4.34,9.13,7.1,12.09,12.6c2.96,5.51,4.45,12.19,4.45,20.04ZM116.16,292.9c0-5.09-.76-9.38-2.27-12.87s-3.64-6.14-6.38-7.95-5.95-2.71-9.63-2.71-6.89.9-9.63,2.71-4.87,4.45-6.38,7.95-2.27,7.78-2.27,12.87.76,9.38,2.27,12.87,3.64,6.14,6.38,7.95,5.95,2.71,9.63,2.71,6.89-.9,9.63-2.71,4.87-4.45,6.38-7.95,2.27-7.78,2.27-12.87ZM142.84,328.9v-72h28.83c5.3,0,9.71.79,13.25,2.36,3.54,1.57,6.2,3.74,7.98,6.52,1.78,2.78,2.67,5.97,2.67,9.58,0,2.81-.56,5.28-1.69,7.4s-2.67,3.86-4.62,5.2c-1.96,1.35-4.19,2.3-6.7,2.87v.7c2.74.12,5.31.89,7.72,2.32,2.4,1.43,4.35,3.43,5.85,5.99,1.5,2.57,2.25,5.62,2.25,9.16,0,3.82-.94,7.22-2.83,10.21-1.89,2.99-4.67,5.35-8.35,7.08-3.68,1.73-8.21,2.6-13.61,2.6h-30.76ZM158.06,287.03h11.29c2.09,0,3.94-.37,5.57-1.11,1.63-.74,2.92-1.79,3.87-3.15s1.42-2.99,1.42-4.89c0-2.6-.92-4.7-2.76-6.29-1.84-1.59-4.45-2.39-7.82-2.39h-11.57v17.82ZM158.06,316.45h12.41c4.24,0,7.34-.81,9.28-2.44,1.95-1.63,2.92-3.8,2.92-6.52,0-1.99-.48-3.75-1.44-5.27-.96-1.52-2.33-2.72-4.1-3.59-1.77-.87-3.87-1.3-6.31-1.3h-12.76v19.12ZM220.53,256.9v7.59c0,2.16-.42,4.35-1.25,6.59-.83,2.24-1.94,4.35-3.32,6.33-1.38,1.98-2.9,3.66-4.54,5.04l-6.61-3.9c1.17-1.85,2.21-3.9,3.11-6.15.9-2.25,1.35-4.86,1.35-7.84v-7.66h11.25ZM269.89,277.61c-.28-2.84-1.49-5.04-3.62-6.61-2.13-1.57-5.03-2.36-8.68-2.36-2.48,0-4.58.35-6.29,1.04-1.71.69-3.02,1.65-3.92,2.87-.9,1.22-1.35,2.6-1.35,4.15-.05,1.29.23,2.41.83,3.38s1.42,1.79,2.48,2.48,2.27,1.29,3.66,1.79c1.38.5,2.86.93,4.43,1.28l6.47,1.55c3.14.7,6.02,1.64,8.65,2.81,2.62,1.17,4.9,2.61,6.82,4.32s3.42,3.73,4.48,6.05,1.61,4.98,1.63,7.98c-.02,4.41-1.14,8.22-3.36,11.44s-5.4,5.72-9.56,7.49c-4.16,1.77-9.17,2.65-15.03,2.65s-10.87-.89-15.17-2.67c-4.3-1.78-7.65-4.42-10.05-7.93-2.4-3.5-3.66-7.85-3.78-13.03h14.73c.16,2.41.86,4.42,2.09,6.03s2.88,2.81,4.96,3.62,4.42,1.21,7.05,1.21,4.82-.38,6.73-1.12c1.91-.75,3.39-1.79,4.45-3.13s1.58-2.87,1.58-4.61c0-1.62-.47-2.98-1.42-4.08s-2.33-2.04-4.15-2.81c-1.82-.77-4.04-1.48-6.66-2.11l-7.84-1.97c-6.07-1.48-10.86-3.79-14.38-6.93s-5.26-7.37-5.24-12.69c-.02-4.36,1.14-8.17,3.5-11.43s5.6-5.8,9.72-7.63c4.12-1.83,8.81-2.74,14.06-2.74s10.01.91,14.01,2.74c4,1.83,7.11,4.37,9.33,7.63,2.23,3.26,3.38,7.03,3.45,11.32h-14.59ZM357.68,277.61c-.28-2.84-1.49-5.04-3.62-6.61s-5.03-2.36-8.68-2.36c-2.48,0-4.58.35-6.29,1.04s-3.02,1.65-3.92,2.87-1.35,2.6-1.35,4.15c-.05,1.29.23,2.41.83,3.38s1.42,1.79,2.48,2.48,2.27,1.29,3.66,1.79,2.86.93,4.43,1.28l6.47,1.55c3.14.7,6.02,1.64,8.65,2.81s4.9,2.61,6.82,4.32,3.42,3.73,4.48,6.05,1.61,4.98,1.63,7.98c-.02,4.41-1.14,8.22-3.36,11.44s-5.4,5.72-9.56,7.49-9.17,2.65-15.03,2.65-10.87-.89-15.17-2.67-7.65-4.42-10.05-7.93-3.66-7.85-3.78-13.03h14.73c.16,2.41.86,4.42,2.09,6.03s2.88,2.81,4.96,3.62,4.42,1.21,7.05,1.21,4.82-.38,6.73-1.12,3.39-1.79,4.45-3.13,1.58-2.87,1.58-4.61c0-1.62-.47-2.98-1.42-4.08s-2.33-2.04-4.15-2.81-4.04-1.48-6.66-2.11l-7.84-1.97c-6.07-1.48-10.86-3.79-14.38-6.93s-5.26-7.37-5.24-12.69c-.02-4.36,1.14-8.17,3.5-11.43s5.6-5.8,9.72-7.63,8.81-2.74,14.06-2.74,10.01.91,14.01,2.74,7.11,4.37,9.33,7.63,3.38,7.03,3.45,11.32h-14.59ZM383.44,328.9v-72h15.22v29.71h30.9v-29.71h15.19v72h-15.19v-29.74h-30.9v29.74h-15.22ZM523.47,292.9c0,7.85-1.48,14.53-4.45,20.04s-7,9.71-12.09,12.6-10.82,4.34-17.17,4.34-12.14-1.45-17.23-4.36-9.11-7.11-12.06-12.62-4.43-12.18-4.43-20,1.48-14.53,4.43-20.04,6.97-9.71,12.06-12.6,10.83-4.34,17.23-4.34,12.08,1.45,17.17,4.34,9.13,7.1,12.09,12.6,4.45,12.19,4.45,20.04ZM508.04,292.9c0-5.09-.76-9.38-2.27-12.87s-3.64-6.14-6.38-7.95-5.95-2.71-9.63-2.71-6.89.9-9.63,2.71-4.87,4.45-6.38,7.95-2.27,7.78-2.27,12.87.76,9.38,2.27,12.87,3.64,6.14,6.38,7.95,5.95,2.71,9.63,2.71,6.89-.9,9.63-2.71,4.87-4.45,6.38-7.95,2.27-7.78,2.27-12.87ZM534.72,328.9v-72h28.41c5.46,0,10.11,1.04,13.96,3.11s6.78,4.95,8.81,8.61,3.04,7.89,3.04,12.67-1.03,9-3.09,12.66-5.04,6.5-8.95,8.54-8.62,3.06-14.15,3.06h-18.11v-12.2h15.64c2.93,0,5.35-.51,7.26-1.53s3.34-2.44,4.29-4.25,1.42-3.91,1.42-6.28-.47-4.48-1.42-6.28-2.38-3.19-4.31-4.18-4.36-1.49-7.31-1.49h-10.27v59.55h-15.22Z"/>
    </g>
  </g>
</svg>